<?xml version="1.0" encoding="utf-8"?>
<!DOCTYPE svg PUBLIC "-//W3C//DTD SVG 20010904//EN" "http://www.w3.org/TR/2001/REC-SVG-20010904/DTD/svg10.dtd">
<svg xmlns="http://www.w3.org/2000/svg" xml:space="preserve" xmlns:xlink="http://www.w3.org/1999/xlink" width="984" height="984" viewBox="0 0 984 984">
<defs>
<mask id="qrmask"><g fill="#ffffff">
<g transform="translate(240,48) scale(4)"><rect width="6" height="6"/></g>
<g transform="translate(264,48) scale(4)"><rect width="6" height="6"/></g>
<g transform="translate(408,48) scale(4)"><rect width="6" height="6"/></g>
<g transform="translate(432,48) scale(4)"><rect width="6" height="6"/></g>
<g transform="translate(552,48) scale(4)"><rect width="6" height="6"/></g>
<g transform="translate(624,48) scale(4)"><rect width="6" height="6"/></g>
<g transform="translate(648,48) scale(4)"><rect width="6" height="6"/></g>
<g transform="translate(720,48) scale(4)"><rect width="6" height="6"/></g>
<g transform="translate(240,72) scale(4)"><rect width="6" height="6"/></g>
<g transform="translate(288,72) scale(4)"><rect width="6" height="6"/></g>
<g transform="translate(312,72) scale(4)"><rect width="6" height="6"/></g>
<g transform="translate(336,72) scale(4)"><rect width="6" height="6"/></g>
<g transform="translate(432,72) scale(4)"><rect width="6" height="6"/></g>
<g transform="translate(528,72) scale(4)"><rect width="6" height="6"/></g>
<g transform="translate(648,72) scale(4)"><rect width="6" height="6"/></g>
<g transform="translate(672,72) scale(4)"><rect width="6" height="6"/></g>
<g transform="translate(696,72) scale(4)"><rect width="6" height="6"/></g>
<g transform="translate(720,72) scale(4)"><rect width="6" height="6"/></g>
<g transform="translate(240,96) scale(4)"><rect width="6" height="6"/></g>
<g transform="translate(288,96) scale(4)"><rect width="6" height="6"/></g>
<g transform="translate(312,96) scale(4)"><rect width="6" height="6"/></g>
<g transform="translate(336,96) scale(4)"><rect width="6" height="6"/></g>
<g transform="translate(408,96) scale(4)"><rect width="6" height="6"/></g>
<g transform="translate(432,96) scale(4)"><rect width="6" height="6"/></g>
<g transform="translate(480,96) scale(4)"><rect width="6" height="6"/></g>
<g transform="translate(504,96) scale(4)"><rect width="6" height="6"/></g>
<g transform="translate(552,96) scale(4)"><rect width="6" height="6"/></g>
<g transform="translate(576,96) scale(4)"><rect width="6" height="6"/></g>
<g transform="translate(624,96) scale(4)"><rect width="6" height="6"/></g>
<g transform="translate(672,96) scale(4)"><rect width="6" height="6"/></g>
<g transform="translate(720,96) scale(4)"><rect width="6" height="6"/></g>
<g transform="translate(264,120) scale(4)"><rect width="6" height="6"/></g>
<g transform="translate(360,120) scale(4)"><rect width="6" height="6"/></g>
<g transform="translate(456,120) scale(4)"><rect width="6" height="6"/></g>
<g transform="translate(576,120) scale(4)"><rect width="6" height="6"/></g>
<g transform="translate(648,120) scale(4)"><rect width="6" height="6"/></g>
<g transform="translate(672,120) scale(4)"><rect width="6" height="6"/></g>
<g transform="translate(696,120) scale(4)"><rect width="6" height="6"/></g>
<g transform="translate(264,144) scale(4)"><rect width="6" height="6"/></g>
<g transform="translate(288,144) scale(4)"><rect width="6" height="6"/></g>
<g transform="translate(312,144) scale(4)"><rect width="6" height="6"/></g>
<g transform="translate(336,144) scale(4)"><rect width="6" height="6"/></g>
<g transform="translate(360,144) scale(4)"><rect width="6" height="6"/></g>
<g transform="translate(408,144) scale(4)"><rect width="6" height="6"/></g>
<g transform="translate(432,144) scale(4)"><rect width="6" height="6"/></g>
<g transform="translate(480,144) scale(4)"><rect width="6" height="6"/></g>
<g transform="translate(504,144) scale(4)"><rect width="6" height="6"/></g>
<g transform="translate(528,144) scale(4)"><rect width="6" height="6"/></g>
<g transform="translate(552,144) scale(4)"><rect width="6" height="6"/></g>
<g transform="translate(576,144) scale(4)"><rect width="6" height="6"/></g>
<g transform="translate(600,144) scale(4)"><rect width="6" height="6"/></g>
<g transform="translate(240,168) scale(4)"><rect width="6" height="6"/></g>
<g transform="translate(264,168) scale(4)"><rect width="6" height="6"/></g>
<g transform="translate(336,168) scale(4)"><rect width="6" height="6"/></g>
<g transform="translate(432,168) scale(4)"><rect width="6" height="6"/></g>
<g transform="translate(456,168) scale(4)"><rect width="6" height="6"/></g>
<g transform="translate(504,168) scale(4)"><rect width="6" height="6"/></g>
<g transform="translate(528,168) scale(4)"><rect width="6" height="6"/></g>
<g transform="translate(552,168) scale(4)"><rect width="6" height="6"/></g>
<g transform="translate(576,168) scale(4)"><rect width="6" height="6"/></g>
<g transform="translate(600,168) scale(4)"><rect width="6" height="6"/></g>
<g transform="translate(624,168) scale(4)"><rect width="6" height="6"/></g>
<g transform="translate(648,168) scale(4)"><rect width="6" height="6"/></g>
<g transform="translate(696,168) scale(4)"><rect width="6" height="6"/></g>
<g transform="translate(720,168) scale(4)"><rect width="6" height="6"/></g>
<g transform="translate(240,192) scale(4)"><rect width="6" height="6"/></g>
<g transform="translate(288,192) scale(4)"><rect width="6" height="6"/></g>
<g transform="translate(336,192) scale(4)"><rect width="6" height="6"/></g>
<g transform="translate(384,192) scale(4)"><rect width="6" height="6"/></g>
<g transform="translate(432,192) scale(4)"><rect width="6" height="6"/></g>
<g transform="translate(480,192) scale(4)"><rect width="6" height="6"/></g>
<g transform="translate(528,192) scale(4)"><rect width="6" height="6"/></g>
<g transform="translate(576,192) scale(4)"><rect width="6" height="6"/></g>
<g transform="translate(624,192) scale(4)"><rect width="6" height="6"/></g>
<g transform="translate(672,192) scale(4)"><rect width="6" height="6"/></g>
<g transform="translate(720,192) scale(4)"><rect width="6" height="6"/></g>
<g transform="translate(240,216) scale(4)"><rect width="6" height="6"/></g>
<g transform="translate(264,216) scale(4)"><rect width="6" height="6"/></g>
<g transform="translate(288,216) scale(4)"><rect width="6" height="6"/></g>
<g transform="translate(360,216) scale(4)"><rect width="6" height="6"/></g>
<g transform="translate(408,216) scale(4)"><rect width="6" height="6"/></g>
<g transform="translate(480,216) scale(4)"><rect width="6" height="6"/></g>
<g transform="translate(504,216) scale(4)"><rect width="6" height="6"/></g>
<g transform="translate(552,216) scale(4)"><rect width="6" height="6"/></g>
<g transform="translate(576,216) scale(4)"><rect width="6" height="6"/></g>
<g transform="translate(600,216) scale(4)"><rect width="6" height="6"/></g>
<g transform="translate(624,216) scale(4)"><rect width="6" height="6"/></g>
<g transform="translate(720,216) scale(4)"><rect width="6" height="6"/></g>
<g transform="translate(96,240) scale(4)"><rect width="6" height="6"/></g>
<g transform="translate(120,240) scale(4)"><rect width="6" height="6"/></g>
<g transform="translate(144,240) scale(4)"><rect width="6" height="6"/></g>
<g transform="translate(192,240) scale(4)"><rect width="6" height="6"/></g>
<g transform="translate(240,240) scale(4)"><rect width="6" height="6"/></g>
<g transform="translate(312,240) scale(4)"><rect width="6" height="6"/></g>
<g transform="translate(336,240) scale(4)"><rect width="6" height="6"/></g>
<g transform="translate(384,240) scale(4)"><rect width="6" height="6"/></g>
<g transform="translate(456,240) scale(4)"><rect width="6" height="6"/></g>
<g transform="translate(480,240) scale(4)"><rect width="6" height="6"/></g>
<g transform="translate(504,240) scale(4)"><rect width="6" height="6"/></g>
<g transform="translate(528,240) scale(4)"><rect width="6" height="6"/></g>
<g transform="translate(576,240) scale(4)"><rect width="6" height="6"/></g>
<g transform="translate(600,240) scale(4)"><rect width="6" height="6"/></g>
<g transform="translate(624,240) scale(4)"><rect width="6" height="6"/></g>
<g transform="translate(648,240) scale(4)"><rect width="6" height="6"/></g>
<g transform="translate(720,240) scale(4)"><rect width="6" height="6"/></g>
<g transform="translate(744,240) scale(4)"><rect width="6" height="6"/></g>
<g transform="translate(768,240) scale(4)"><rect width="6" height="6"/></g>
<g transform="translate(792,240) scale(4)"><rect width="6" height="6"/></g>
<g transform="translate(864,240) scale(4)"><rect width="6" height="6"/></g>
<g transform="translate(888,240) scale(4)"><rect width="6" height="6"/></g>
<g transform="translate(912,240) scale(4)"><rect width="6" height="6"/></g>
<g transform="translate(48,264) scale(4)"><rect width="6" height="6"/></g>
<g transform="translate(96,264) scale(4)"><rect width="6" height="6"/></g>
<g transform="translate(168,264) scale(4)"><rect width="6" height="6"/></g>
<g transform="translate(336,264) scale(4)"><rect width="6" height="6"/></g>
<g transform="translate(360,264) scale(4)"><rect width="6" height="6"/></g>
<g transform="translate(384,264) scale(4)"><rect width="6" height="6"/></g>
<g transform="translate(408,264) scale(4)"><rect width="6" height="6"/></g>
<g transform="translate(432,264) scale(4)"><rect width="6" height="6"/></g>
<g transform="translate(456,264) scale(4)"><rect width="6" height="6"/></g>
<g transform="translate(480,264) scale(4)"><rect width="6" height="6"/></g>
<g transform="translate(504,264) scale(4)"><rect width="6" height="6"/></g>
<g transform="translate(528,264) scale(4)"><rect width="6" height="6"/></g>
<g transform="translate(552,264) scale(4)"><rect width="6" height="6"/></g>
<g transform="translate(600,264) scale(4)"><rect width="6" height="6"/></g>
<g transform="translate(648,264) scale(4)"><rect width="6" height="6"/></g>
<g transform="translate(672,264) scale(4)"><rect width="6" height="6"/></g>
<g transform="translate(792,264) scale(4)"><rect width="6" height="6"/></g>
<g transform="translate(840,264) scale(4)"><rect width="6" height="6"/></g>
<g transform="translate(72,288) scale(4)"><rect width="6" height="6"/></g>
<g transform="translate(96,288) scale(4)"><rect width="6" height="6"/></g>
<g transform="translate(144,288) scale(4)"><rect width="6" height="6"/></g>
<g transform="translate(168,288) scale(4)"><rect width="6" height="6"/></g>
<g transform="translate(192,288) scale(4)"><rect width="6" height="6"/></g>
<g transform="translate(240,288) scale(4)"><rect width="6" height="6"/></g>
<g transform="translate(288,288) scale(4)"><rect width="6" height="6"/></g>
<g transform="translate(336,288) scale(4)"><rect width="6" height="6"/></g>
<g transform="translate(360,288) scale(4)"><rect width="6" height="6"/></g>
<g transform="translate(384,288) scale(4)"><rect width="6" height="6"/></g>
<g transform="translate(408,288) scale(4)"><rect width="6" height="6"/></g>
<g transform="translate(432,288) scale(4)"><rect width="6" height="6"/></g>
<g transform="translate(504,288) scale(4)"><rect width="6" height="6"/></g>
<g transform="translate(600,288) scale(4)"><rect width="6" height="6"/></g>
<g transform="translate(648,288) scale(4)"><rect width="6" height="6"/></g>
<g transform="translate(672,288) scale(4)"><rect width="6" height="6"/></g>
<g transform="translate(696,288) scale(4)"><rect width="6" height="6"/></g>
<g transform="translate(720,288) scale(4)"><rect width="6" height="6"/></g>
<g transform="translate(768,288) scale(4)"><rect width="6" height="6"/></g>
<g transform="translate(816,288) scale(4)"><rect width="6" height="6"/></g>
<g transform="translate(888,288) scale(4)"><rect width="6" height="6"/></g>
<g transform="translate(912,288) scale(4)"><rect width="6" height="6"/></g>
<g transform="translate(48,312) scale(4)"><rect width="6" height="6"/></g>
<g transform="translate(168,312) scale(4)"><rect width="6" height="6"/></g>
<g transform="translate(216,312) scale(4)"><rect width="6" height="6"/></g>
<g transform="translate(240,312) scale(4)"><rect width="6" height="6"/></g>
<g transform="translate(336,312) scale(4)"><rect width="6" height="6"/></g>
<g transform="translate(360,312) scale(4)"><rect width="6" height="6"/></g>
<g transform="translate(384,312) scale(4)"><rect width="6" height="6"/></g>
<g transform="translate(480,312) scale(4)"><rect width="6" height="6"/></g>
<g transform="translate(504,312) scale(4)"><rect width="6" height="6"/></g>
<g transform="translate(528,312) scale(4)"><rect width="6" height="6"/></g>
<g transform="translate(576,312) scale(4)"><rect width="6" height="6"/></g>
<g transform="translate(600,312) scale(4)"><rect width="6" height="6"/></g>
<g transform="translate(672,312) scale(4)"><rect width="6" height="6"/></g>
<g transform="translate(768,312) scale(4)"><rect width="6" height="6"/></g>
<g transform="translate(816,312) scale(4)"><rect width="6" height="6"/></g>
<g transform="translate(888,312) scale(4)"><rect width="6" height="6"/></g>
<g transform="translate(912,312) scale(4)"><rect width="6" height="6"/></g>
<g transform="translate(120,336) scale(4)"><rect width="6" height="6"/></g>
<g transform="translate(192,336) scale(4)"><rect width="6" height="6"/></g>
<g transform="translate(264,336) scale(4)"><rect width="6" height="6"/></g>
<g transform="translate(408,336) scale(4)"><rect width="6" height="6"/></g>
<g transform="translate(456,336) scale(4)"><rect width="6" height="6"/></g>
<g transform="translate(480,336) scale(4)"><rect width="6" height="6"/></g>
<g transform="translate(600,336) scale(4)"><rect width="6" height="6"/></g>
<g transform="translate(624,336) scale(4)"><rect width="6" height="6"/></g>
<g transform="translate(648,336) scale(4)"><rect width="6" height="6"/></g>
<g transform="translate(672,336) scale(4)"><rect width="6" height="6"/></g>
<g transform="translate(744,336) scale(4)"><rect width="6" height="6"/></g>
<g transform="translate(768,336) scale(4)"><rect width="6" height="6"/></g>
<g transform="translate(816,336) scale(4)"><rect width="6" height="6"/></g>
<g transform="translate(840,336) scale(4)"><rect width="6" height="6"/></g>
<g transform="translate(864,336) scale(4)"><rect width="6" height="6"/></g>
<g transform="translate(888,336) scale(4)"><rect width="6" height="6"/></g>
<g transform="translate(912,336) scale(4)"><rect width="6" height="6"/></g>
<g transform="translate(72,360) scale(4)"><rect width="6" height="6"/></g>
<g transform="translate(120,360) scale(4)"><rect width="6" height="6"/></g>
<g transform="translate(216,360) scale(4)"><rect width="6" height="6"/></g>
<g transform="translate(264,360) scale(4)"><rect width="6" height="6"/></g>
<g transform="translate(336,360) scale(4)"><rect width="6" height="6"/></g>
<g transform="translate(360,360) scale(4)"><rect width="6" height="6"/></g>
<g transform="translate(432,360) scale(4)"><rect width="6" height="6"/></g>
<g transform="translate(480,360) scale(4)"><rect width="6" height="6"/></g>
<g transform="translate(528,360) scale(4)"><rect width="6" height="6"/></g>
<g transform="translate(552,360) scale(4)"><rect width="6" height="6"/></g>
<g transform="translate(624,360) scale(4)"><rect width="6" height="6"/></g>
<g transform="translate(648,360) scale(4)"><rect width="6" height="6"/></g>
<g transform="translate(672,360) scale(4)"><rect width="6" height="6"/></g>
<g transform="translate(720,360) scale(4)"><rect width="6" height="6"/></g>
<g transform="translate(744,360) scale(4)"><rect width="6" height="6"/></g>
<g transform="translate(792,360) scale(4)"><rect width="6" height="6"/></g>
<g transform="translate(840,360) scale(4)"><rect width="6" height="6"/></g>
<g transform="translate(864,360) scale(4)"><rect width="6" height="6"/></g>
<g transform="translate(48,384) scale(4)"><rect width="6" height="6"/></g>
<g transform="translate(96,384) scale(4)"><rect width="6" height="6"/></g>
<g transform="translate(120,384) scale(4)"><rect width="6" height="6"/></g>
<g transform="translate(144,384) scale(4)"><rect width="6" height="6"/></g>
<g transform="translate(168,384) scale(4)"><rect width="6" height="6"/></g>
<g transform="translate(192,384) scale(4)"><rect width="6" height="6"/></g>
<g transform="translate(216,384) scale(4)"><rect width="6" height="6"/></g>
<g transform="translate(240,384) scale(4)"><rect width="6" height="6"/></g>
<g transform="translate(336,384) scale(4)"><rect width="6" height="6"/></g>
<g transform="translate(408,384) scale(4)"><rect width="6" height="6"/></g>
<g transform="translate(504,384) scale(4)"><rect width="6" height="6"/></g>
<g transform="translate(528,384) scale(4)"><rect width="6" height="6"/></g>
<g transform="translate(552,384) scale(4)"><rect width="6" height="6"/></g>
<g transform="translate(600,384) scale(4)"><rect width="6" height="6"/></g>
<g transform="translate(696,384) scale(4)"><rect width="6" height="6"/></g>
<g transform="translate(744,384) scale(4)"><rect width="6" height="6"/></g>
<g transform="translate(792,384) scale(4)"><rect width="6" height="6"/></g>
<g transform="translate(840,384) scale(4)"><rect width="6" height="6"/></g>
<g transform="translate(888,384) scale(4)"><rect width="6" height="6"/></g>
<g transform="translate(912,384) scale(4)"><rect width="6" height="6"/></g>
<g transform="translate(120,408) scale(4)"><rect width="6" height="6"/></g>
<g transform="translate(216,408) scale(4)"><rect width="6" height="6"/></g>
<g transform="translate(240,408) scale(4)"><rect width="6" height="6"/></g>
<g transform="translate(264,408) scale(4)"><rect width="6" height="6"/></g>
<g transform="translate(288,408) scale(4)"><rect width="6" height="6"/></g>
<g transform="translate(312,408) scale(4)"><rect width="6" height="6"/></g>
<g transform="translate(408,408) scale(4)"><rect width="6" height="6"/></g>
<g transform="translate(480,408) scale(4)"><rect width="6" height="6"/></g>
<g transform="translate(552,408) scale(4)"><rect width="6" height="6"/></g>
<g transform="translate(600,408) scale(4)"><rect width="6" height="6"/></g>
<g transform="translate(672,408) scale(4)"><rect width="6" height="6"/></g>
<g transform="translate(744,408) scale(4)"><rect width="6" height="6"/></g>
<g transform="translate(816,408) scale(4)"><rect width="6" height="6"/></g>
<g transform="translate(72,432) scale(4)"><rect width="6" height="6"/></g>
<g transform="translate(96,432) scale(4)"><rect width="6" height="6"/></g>
<g transform="translate(120,432) scale(4)"><rect width="6" height="6"/></g>
<g transform="translate(168,432) scale(4)"><rect width="6" height="6"/></g>
<g transform="translate(192,432) scale(4)"><rect width="6" height="6"/></g>
<g transform="translate(264,432) scale(4)"><rect width="6" height="6"/></g>
<g transform="translate(288,432) scale(4)"><rect width="6" height="6"/></g>
<g transform="translate(336,432) scale(4)"><rect width="6" height="6"/></g>
<g transform="translate(360,432) scale(4)"><rect width="6" height="6"/></g>
<g transform="translate(384,432) scale(4)"><rect width="6" height="6"/></g>
<g transform="translate(432,432) scale(4)"><rect width="6" height="6"/></g>
<g transform="translate(456,432) scale(4)"><rect width="6" height="6"/></g>
<g transform="translate(480,432) scale(4)"><rect width="6" height="6"/></g>
<g transform="translate(504,432) scale(4)"><rect width="6" height="6"/></g>
<g transform="translate(528,432) scale(4)"><rect width="6" height="6"/></g>
<g transform="translate(576,432) scale(4)"><rect width="6" height="6"/></g>
<g transform="translate(624,432) scale(4)"><rect width="6" height="6"/></g>
<g transform="translate(648,432) scale(4)"><rect width="6" height="6"/></g>
<g transform="translate(672,432) scale(4)"><rect width="6" height="6"/></g>
<g transform="translate(744,432) scale(4)"><rect width="6" height="6"/></g>
<g transform="translate(768,432) scale(4)"><rect width="6" height="6"/></g>
<g transform="translate(816,432) scale(4)"><rect width="6" height="6"/></g>
<g transform="translate(864,432) scale(4)"><rect width="6" height="6"/></g>
<g transform="translate(888,432) scale(4)"><rect width="6" height="6"/></g>
<g transform="translate(72,456) scale(4)"><rect width="6" height="6"/></g>
<g transform="translate(96,456) scale(4)"><rect width="6" height="6"/></g>
<g transform="translate(120,456) scale(4)"><rect width="6" height="6"/></g>
<g transform="translate(144,456) scale(4)"><rect width="6" height="6"/></g>
<g transform="translate(216,456) scale(4)"><rect width="6" height="6"/></g>
<g transform="translate(240,456) scale(4)"><rect width="6" height="6"/></g>
<g transform="translate(408,456) scale(4)"><rect width="6" height="6"/></g>
<g transform="translate(480,456) scale(4)"><rect width="6" height="6"/></g>
<g transform="translate(504,456) scale(4)"><rect width="6" height="6"/></g>
<g transform="translate(552,456) scale(4)"><rect width="6" height="6"/></g>
<g transform="translate(600,456) scale(4)"><rect width="6" height="6"/></g>
<g transform="translate(672,456) scale(4)"><rect width="6" height="6"/></g>
<g transform="translate(720,456) scale(4)"><rect width="6" height="6"/></g>
<g transform="translate(744,456) scale(4)"><rect width="6" height="6"/></g>
<g transform="translate(792,456) scale(4)"><rect width="6" height="6"/></g>
<g transform="translate(840,456) scale(4)"><rect width="6" height="6"/></g>
<g transform="translate(864,456) scale(4)"><rect width="6" height="6"/></g>
<g transform="translate(48,480) scale(4)"><rect width="6" height="6"/></g>
<g transform="translate(72,480) scale(4)"><rect width="6" height="6"/></g>
<g transform="translate(144,480) scale(4)"><rect width="6" height="6"/></g>
<g transform="translate(168,480) scale(4)"><rect width="6" height="6"/></g>
<g transform="translate(192,480) scale(4)"><rect width="6" height="6"/></g>
<g transform="translate(216,480) scale(4)"><rect width="6" height="6"/></g>
<g transform="translate(240,480) scale(4)"><rect width="6" height="6"/></g>
<g transform="translate(264,480) scale(4)"><rect width="6" height="6"/></g>
<g transform="translate(288,480) scale(4)"><rect width="6" height="6"/></g>
<g transform="translate(312,480) scale(4)"><rect width="6" height="6"/></g>
<g transform="translate(360,480) scale(4)"><rect width="6" height="6"/></g>
<g transform="translate(408,480) scale(4)"><rect width="6" height="6"/></g>
<g transform="translate(432,480) scale(4)"><rect width="6" height="6"/></g>
<g transform="translate(480,480) scale(4)"><rect width="6" height="6"/></g>
<g transform="translate(504,480) scale(4)"><rect width="6" height="6"/></g>
<g transform="translate(552,480) scale(4)"><rect width="6" height="6"/></g>
<g transform="translate(576,480) scale(4)"><rect width="6" height="6"/></g>
<g transform="translate(600,480) scale(4)"><rect width="6" height="6"/></g>
<g transform="translate(648,480) scale(4)"><rect width="6" height="6"/></g>
<g transform="translate(672,480) scale(4)"><rect width="6" height="6"/></g>
<g transform="translate(696,480) scale(4)"><rect width="6" height="6"/></g>
<g transform="translate(744,480) scale(4)"><rect width="6" height="6"/></g>
<g transform="translate(792,480) scale(4)"><rect width="6" height="6"/></g>
<g transform="translate(888,480) scale(4)"><rect width="6" height="6"/></g>
<g transform="translate(912,480) scale(4)"><rect width="6" height="6"/></g>
<g transform="translate(48,504) scale(4)"><rect width="6" height="6"/></g>
<g transform="translate(96,504) scale(4)"><rect width="6" height="6"/></g>
<g transform="translate(168,504) scale(4)"><rect width="6" height="6"/></g>
<g transform="translate(216,504) scale(4)"><rect width="6" height="6"/></g>
<g transform="translate(240,504) scale(4)"><rect width="6" height="6"/></g>
<g transform="translate(264,504) scale(4)"><rect width="6" height="6"/></g>
<g transform="translate(288,504) scale(4)"><rect width="6" height="6"/></g>
<g transform="translate(360,504) scale(4)"><rect width="6" height="6"/></g>
<g transform="translate(384,504) scale(4)"><rect width="6" height="6"/></g>
<g transform="translate(432,504) scale(4)"><rect width="6" height="6"/></g>
<g transform="translate(456,504) scale(4)"><rect width="6" height="6"/></g>
<g transform="translate(480,504) scale(4)"><rect width="6" height="6"/></g>
<g transform="translate(528,504) scale(4)"><rect width="6" height="6"/></g>
<g transform="translate(552,504) scale(4)"><rect width="6" height="6"/></g>
<g transform="translate(576,504) scale(4)"><rect width="6" height="6"/></g>
<g transform="translate(600,504) scale(4)"><rect width="6" height="6"/></g>
<g transform="translate(672,504) scale(4)"><rect width="6" height="6"/></g>
<g transform="translate(720,504) scale(4)"><rect width="6" height="6"/></g>
<g transform="translate(744,504) scale(4)"><rect width="6" height="6"/></g>
<g transform="translate(816,504) scale(4)"><rect width="6" height="6"/></g>
<g transform="translate(888,504) scale(4)"><rect width="6" height="6"/></g>
<g transform="translate(144,528) scale(4)"><rect width="6" height="6"/></g>
<g transform="translate(168,528) scale(4)"><rect width="6" height="6"/></g>
<g transform="translate(192,528) scale(4)"><rect width="6" height="6"/></g>
<g transform="translate(216,528) scale(4)"><rect width="6" height="6"/></g>
<g transform="translate(264,528) scale(4)"><rect width="6" height="6"/></g>
<g transform="translate(312,528) scale(4)"><rect width="6" height="6"/></g>
<g transform="translate(360,528) scale(4)"><rect width="6" height="6"/></g>
<g transform="translate(384,528) scale(4)"><rect width="6" height="6"/></g>
<g transform="translate(408,528) scale(4)"><rect width="6" height="6"/></g>
<g transform="translate(432,528) scale(4)"><rect width="6" height="6"/></g>
<g transform="translate(504,528) scale(4)"><rect width="6" height="6"/></g>
<g transform="translate(528,528) scale(4)"><rect width="6" height="6"/></g>
<g transform="translate(600,528) scale(4)"><rect width="6" height="6"/></g>
<g transform="translate(648,528) scale(4)"><rect width="6" height="6"/></g>
<g transform="translate(672,528) scale(4)"><rect width="6" height="6"/></g>
<g transform="translate(768,528) scale(4)"><rect width="6" height="6"/></g>
<g transform="translate(792,528) scale(4)"><rect width="6" height="6"/></g>
<g transform="translate(816,528) scale(4)"><rect width="6" height="6"/></g>
<g transform="translate(840,528) scale(4)"><rect width="6" height="6"/></g>
<g transform="translate(864,528) scale(4)"><rect width="6" height="6"/></g>
<g transform="translate(72,552) scale(4)"><rect width="6" height="6"/></g>
<g transform="translate(216,552) scale(4)"><rect width="6" height="6"/></g>
<g transform="translate(240,552) scale(4)"><rect width="6" height="6"/></g>
<g transform="translate(288,552) scale(4)"><rect width="6" height="6"/></g>
<g transform="translate(360,552) scale(4)"><rect width="6" height="6"/></g>
<g transform="translate(384,552) scale(4)"><rect width="6" height="6"/></g>
<g transform="translate(408,552) scale(4)"><rect width="6" height="6"/></g>
<g transform="translate(432,552) scale(4)"><rect width="6" height="6"/></g>
<g transform="translate(456,552) scale(4)"><rect width="6" height="6"/></g>
<g transform="translate(552,552) scale(4)"><rect width="6" height="6"/></g>
<g transform="translate(576,552) scale(4)"><rect width="6" height="6"/></g>
<g transform="translate(600,552) scale(4)"><rect width="6" height="6"/></g>
<g transform="translate(624,552) scale(4)"><rect width="6" height="6"/></g>
<g transform="translate(792,552) scale(4)"><rect width="6" height="6"/></g>
<g transform="translate(840,552) scale(4)"><rect width="6" height="6"/></g>
<g transform="translate(48,576) scale(4)"><rect width="6" height="6"/></g>
<g transform="translate(96,576) scale(4)"><rect width="6" height="6"/></g>
<g transform="translate(192,576) scale(4)"><rect width="6" height="6"/></g>
<g transform="translate(312,576) scale(4)"><rect width="6" height="6"/></g>
<g transform="translate(336,576) scale(4)"><rect width="6" height="6"/></g>
<g transform="translate(360,576) scale(4)"><rect width="6" height="6"/></g>
<g transform="translate(384,576) scale(4)"><rect width="6" height="6"/></g>
<g transform="translate(408,576) scale(4)"><rect width="6" height="6"/></g>
<g transform="translate(576,576) scale(4)"><rect width="6" height="6"/></g>
<g transform="translate(600,576) scale(4)"><rect width="6" height="6"/></g>
<g transform="translate(624,576) scale(4)"><rect width="6" height="6"/></g>
<g transform="translate(696,576) scale(4)"><rect width="6" height="6"/></g>
<g transform="translate(768,576) scale(4)"><rect width="6" height="6"/></g>
<g transform="translate(840,576) scale(4)"><rect width="6" height="6"/></g>
<g transform="translate(864,576) scale(4)"><rect width="6" height="6"/></g>
<g transform="translate(888,576) scale(4)"><rect width="6" height="6"/></g>
<g transform="translate(912,576) scale(4)"><rect width="6" height="6"/></g>
<g transform="translate(96,600) scale(4)"><rect width="6" height="6"/></g>
<g transform="translate(144,600) scale(4)"><rect width="6" height="6"/></g>
<g transform="translate(168,600) scale(4)"><rect width="6" height="6"/></g>
<g transform="translate(216,600) scale(4)"><rect width="6" height="6"/></g>
<g transform="translate(240,600) scale(4)"><rect width="6" height="6"/></g>
<g transform="translate(312,600) scale(4)"><rect width="6" height="6"/></g>
<g transform="translate(360,600) scale(4)"><rect width="6" height="6"/></g>
<g transform="translate(408,600) scale(4)"><rect width="6" height="6"/></g>
<g transform="translate(432,600) scale(4)"><rect width="6" height="6"/></g>
<g transform="translate(504,600) scale(4)"><rect width="6" height="6"/></g>
<g transform="translate(672,600) scale(4)"><rect width="6" height="6"/></g>
<g transform="translate(744,600) scale(4)"><rect width="6" height="6"/></g>
<g transform="translate(768,600) scale(4)"><rect width="6" height="6"/></g>
<g transform="translate(792,600) scale(4)"><rect width="6" height="6"/></g>
<g transform="translate(840,600) scale(4)"><rect width="6" height="6"/></g>
<g transform="translate(912,600) scale(4)"><rect width="6" height="6"/></g>
<g transform="translate(48,624) scale(4)"><rect width="6" height="6"/></g>
<g transform="translate(120,624) scale(4)"><rect width="6" height="6"/></g>
<g transform="translate(192,624) scale(4)"><rect width="6" height="6"/></g>
<g transform="translate(336,624) scale(4)"><rect width="6" height="6"/></g>
<g transform="translate(360,624) scale(4)"><rect width="6" height="6"/></g>
<g transform="translate(384,624) scale(4)"><rect width="6" height="6"/></g>
<g transform="translate(408,624) scale(4)"><rect width="6" height="6"/></g>
<g transform="translate(480,624) scale(4)"><rect width="6" height="6"/></g>
<g transform="translate(504,624) scale(4)"><rect width="6" height="6"/></g>
<g transform="translate(528,624) scale(4)"><rect width="6" height="6"/></g>
<g transform="translate(624,624) scale(4)"><rect width="6" height="6"/></g>
<g transform="translate(648,624) scale(4)"><rect width="6" height="6"/></g>
<g transform="translate(744,624) scale(4)"><rect width="6" height="6"/></g>
<g transform="translate(768,624) scale(4)"><rect width="6" height="6"/></g>
<g transform="translate(840,624) scale(4)"><rect width="6" height="6"/></g>
<g transform="translate(864,624) scale(4)"><rect width="6" height="6"/></g>
<g transform="translate(888,624) scale(4)"><rect width="6" height="6"/></g>
<g transform="translate(48,648) scale(4)"><rect width="6" height="6"/></g>
<g transform="translate(72,648) scale(4)"><rect width="6" height="6"/></g>
<g transform="translate(144,648) scale(4)"><rect width="6" height="6"/></g>
<g transform="translate(240,648) scale(4)"><rect width="6" height="6"/></g>
<g transform="translate(312,648) scale(4)"><rect width="6" height="6"/></g>
<g transform="translate(408,648) scale(4)"><rect width="6" height="6"/></g>
<g transform="translate(504,648) scale(4)"><rect width="6" height="6"/></g>
<g transform="translate(528,648) scale(4)"><rect width="6" height="6"/></g>
<g transform="translate(576,648) scale(4)"><rect width="6" height="6"/></g>
<g transform="translate(720,648) scale(4)"><rect width="6" height="6"/></g>
<g transform="translate(792,648) scale(4)"><rect width="6" height="6"/></g>
<g transform="translate(840,648) scale(4)"><rect width="6" height="6"/></g>
<g transform="translate(888,648) scale(4)"><rect width="6" height="6"/></g>
<g transform="translate(48,672) scale(4)"><rect width="6" height="6"/></g>
<g transform="translate(96,672) scale(4)"><rect width="6" height="6"/></g>
<g transform="translate(192,672) scale(4)"><rect width="6" height="6"/></g>
<g transform="translate(288,672) scale(4)"><rect width="6" height="6"/></g>
<g transform="translate(312,672) scale(4)"><rect width="6" height="6"/></g>
<g transform="translate(384,672) scale(4)"><rect width="6" height="6"/></g>
<g transform="translate(408,672) scale(4)"><rect width="6" height="6"/></g>
<g transform="translate(432,672) scale(4)"><rect width="6" height="6"/></g>
<g transform="translate(480,672) scale(4)"><rect width="6" height="6"/></g>
<g transform="translate(552,672) scale(4)"><rect width="6" height="6"/></g>
<g transform="translate(576,672) scale(4)"><rect width="6" height="6"/></g>
<g transform="translate(600,672) scale(4)"><rect width="6" height="6"/></g>
<g transform="translate(624,672) scale(4)"><rect width="6" height="6"/></g>
<g transform="translate(648,672) scale(4)"><rect width="6" height="6"/></g>
<g transform="translate(672,672) scale(4)"><rect width="6" height="6"/></g>
<g transform="translate(696,672) scale(4)"><rect width="6" height="6"/></g>
<g transform="translate(720,672) scale(4)"><rect width="6" height="6"/></g>
<g transform="translate(768,672) scale(4)"><rect width="6" height="6"/></g>
<g transform="translate(792,672) scale(4)"><rect width="6" height="6"/></g>
<g transform="translate(816,672) scale(4)"><rect width="6" height="6"/></g>
<g transform="translate(864,672) scale(4)"><rect width="6" height="6"/></g>
<g transform="translate(888,672) scale(4)"><rect width="6" height="6"/></g>
<g transform="translate(912,672) scale(4)"><rect width="6" height="6"/></g>
<g transform="translate(48,696) scale(4)"><rect width="6" height="6"/></g>
<g transform="translate(96,696) scale(4)"><rect width="6" height="6"/></g>
<g transform="translate(120,696) scale(4)"><rect width="6" height="6"/></g>
<g transform="translate(168,696) scale(4)"><rect width="6" height="6"/></g>
<g transform="translate(216,696) scale(4)"><rect width="6" height="6"/></g>
<g transform="translate(240,696) scale(4)"><rect width="6" height="6"/></g>
<g transform="translate(312,696) scale(4)"><rect width="6" height="6"/></g>
<g transform="translate(384,696) scale(4)"><rect width="6" height="6"/></g>
<g transform="translate(480,696) scale(4)"><rect width="6" height="6"/></g>
<g transform="translate(528,696) scale(4)"><rect width="6" height="6"/></g>
<g transform="translate(552,696) scale(4)"><rect width="6" height="6"/></g>
<g transform="translate(576,696) scale(4)"><rect width="6" height="6"/></g>
<g transform="translate(600,696) scale(4)"><rect width="6" height="6"/></g>
<g transform="translate(744,696) scale(4)"><rect width="6" height="6"/></g>
<g transform="translate(816,696) scale(4)"><rect width="6" height="6"/></g>
<g transform="translate(912,696) scale(4)"><rect width="6" height="6"/></g>
<g transform="translate(48,720) scale(4)"><rect width="6" height="6"/></g>
<g transform="translate(120,720) scale(4)"><rect width="6" height="6"/></g>
<g transform="translate(144,720) scale(4)"><rect width="6" height="6"/></g>
<g transform="translate(192,720) scale(4)"><rect width="6" height="6"/></g>
<g transform="translate(288,720) scale(4)"><rect width="6" height="6"/></g>
<g transform="translate(312,720) scale(4)"><rect width="6" height="6"/></g>
<g transform="translate(336,720) scale(4)"><rect width="6" height="6"/></g>
<g transform="translate(456,720) scale(4)"><rect width="6" height="6"/></g>
<g transform="translate(480,720) scale(4)"><rect width="6" height="6"/></g>
<g transform="translate(528,720) scale(4)"><rect width="6" height="6"/></g>
<g transform="translate(576,720) scale(4)"><rect width="6" height="6"/></g>
<g transform="translate(600,720) scale(4)"><rect width="6" height="6"/></g>
<g transform="translate(624,720) scale(4)"><rect width="6" height="6"/></g>
<g transform="translate(648,720) scale(4)"><rect width="6" height="6"/></g>
<g transform="translate(696,720) scale(4)"><rect width="6" height="6"/></g>
<g transform="translate(720,720) scale(4)"><rect width="6" height="6"/></g>
<g transform="translate(744,720) scale(4)"><rect width="6" height="6"/></g>
<g transform="translate(768,720) scale(4)"><rect width="6" height="6"/></g>
<g transform="translate(792,720) scale(4)"><rect width="6" height="6"/></g>
<g transform="translate(816,720) scale(4)"><rect width="6" height="6"/></g>
<g transform="translate(840,720) scale(4)"><rect width="6" height="6"/></g>
<g transform="translate(864,720) scale(4)"><rect width="6" height="6"/></g>
<g transform="translate(240,744) scale(4)"><rect width="6" height="6"/></g>
<g transform="translate(360,744) scale(4)"><rect width="6" height="6"/></g>
<g transform="translate(384,744) scale(4)"><rect width="6" height="6"/></g>
<g transform="translate(432,744) scale(4)"><rect width="6" height="6"/></g>
<g transform="translate(456,744) scale(4)"><rect width="6" height="6"/></g>
<g transform="translate(504,744) scale(4)"><rect width="6" height="6"/></g>
<g transform="translate(576,744) scale(4)"><rect width="6" height="6"/></g>
<g transform="translate(600,744) scale(4)"><rect width="6" height="6"/></g>
<g transform="translate(672,744) scale(4)"><rect width="6" height="6"/></g>
<g transform="translate(696,744) scale(4)"><rect width="6" height="6"/></g>
<g transform="translate(720,744) scale(4)"><rect width="6" height="6"/></g>
<g transform="translate(816,744) scale(4)"><rect width="6" height="6"/></g>
<g transform="translate(264,768) scale(4)"><rect width="6" height="6"/></g>
<g transform="translate(312,768) scale(4)"><rect width="6" height="6"/></g>
<g transform="translate(336,768) scale(4)"><rect width="6" height="6"/></g>
<g transform="translate(360,768) scale(4)"><rect width="6" height="6"/></g>
<g transform="translate(408,768) scale(4)"><rect width="6" height="6"/></g>
<g transform="translate(432,768) scale(4)"><rect width="6" height="6"/></g>
<g transform="translate(480,768) scale(4)"><rect width="6" height="6"/></g>
<g transform="translate(528,768) scale(4)"><rect width="6" height="6"/></g>
<g transform="translate(576,768) scale(4)"><rect width="6" height="6"/></g>
<g transform="translate(624,768) scale(4)"><rect width="6" height="6"/></g>
<g transform="translate(672,768) scale(4)"><rect width="6" height="6"/></g>
<g transform="translate(696,768) scale(4)"><rect width="6" height="6"/></g>
<g transform="translate(720,768) scale(4)"><rect width="6" height="6"/></g>
<g transform="translate(768,768) scale(4)"><rect width="6" height="6"/></g>
<g transform="translate(816,768) scale(4)"><rect width="6" height="6"/></g>
<g transform="translate(840,768) scale(4)"><rect width="6" height="6"/></g>
<g transform="translate(888,768) scale(4)"><rect width="6" height="6"/></g>
<g transform="translate(912,768) scale(4)"><rect width="6" height="6"/></g>
<g transform="translate(264,792) scale(4)"><rect width="6" height="6"/></g>
<g transform="translate(360,792) scale(4)"><rect width="6" height="6"/></g>
<g transform="translate(576,792) scale(4)"><rect width="6" height="6"/></g>
<g transform="translate(600,792) scale(4)"><rect width="6" height="6"/></g>
<g transform="translate(624,792) scale(4)"><rect width="6" height="6"/></g>
<g transform="translate(720,792) scale(4)"><rect width="6" height="6"/></g>
<g transform="translate(816,792) scale(4)"><rect width="6" height="6"/></g>
<g transform="translate(888,792) scale(4)"><rect width="6" height="6"/></g>
<g transform="translate(240,816) scale(4)"><rect width="6" height="6"/></g>
<g transform="translate(288,816) scale(4)"><rect width="6" height="6"/></g>
<g transform="translate(312,816) scale(4)"><rect width="6" height="6"/></g>
<g transform="translate(336,816) scale(4)"><rect width="6" height="6"/></g>
<g transform="translate(384,816) scale(4)"><rect width="6" height="6"/></g>
<g transform="translate(408,816) scale(4)"><rect width="6" height="6"/></g>
<g transform="translate(456,816) scale(4)"><rect width="6" height="6"/></g>
<g transform="translate(504,816) scale(4)"><rect width="6" height="6"/></g>
<g transform="translate(528,816) scale(4)"><rect width="6" height="6"/></g>
<g transform="translate(576,816) scale(4)"><rect width="6" height="6"/></g>
<g transform="translate(624,816) scale(4)"><rect width="6" height="6"/></g>
<g transform="translate(648,816) scale(4)"><rect width="6" height="6"/></g>
<g transform="translate(672,816) scale(4)"><rect width="6" height="6"/></g>
<g transform="translate(696,816) scale(4)"><rect width="6" height="6"/></g>
<g transform="translate(720,816) scale(4)"><rect width="6" height="6"/></g>
<g transform="translate(744,816) scale(4)"><rect width="6" height="6"/></g>
<g transform="translate(768,816) scale(4)"><rect width="6" height="6"/></g>
<g transform="translate(792,816) scale(4)"><rect width="6" height="6"/></g>
<g transform="translate(816,816) scale(4)"><rect width="6" height="6"/></g>
<g transform="translate(864,816) scale(4)"><rect width="6" height="6"/></g>
<g transform="translate(912,816) scale(4)"><rect width="6" height="6"/></g>
<g transform="translate(240,840) scale(4)"><rect width="6" height="6"/></g>
<g transform="translate(312,840) scale(4)"><rect width="6" height="6"/></g>
<g transform="translate(360,840) scale(4)"><rect width="6" height="6"/></g>
<g transform="translate(432,840) scale(4)"><rect width="6" height="6"/></g>
<g transform="translate(456,840) scale(4)"><rect width="6" height="6"/></g>
<g transform="translate(480,840) scale(4)"><rect width="6" height="6"/></g>
<g transform="translate(528,840) scale(4)"><rect width="6" height="6"/></g>
<g transform="translate(624,840) scale(4)"><rect width="6" height="6"/></g>
<g transform="translate(648,840) scale(4)"><rect width="6" height="6"/></g>
<g transform="translate(720,840) scale(4)"><rect width="6" height="6"/></g>
<g transform="translate(768,840) scale(4)"><rect width="6" height="6"/></g>
<g transform="translate(816,840) scale(4)"><rect width="6" height="6"/></g>
<g transform="translate(840,840) scale(4)"><rect width="6" height="6"/></g>
<g transform="translate(240,864) scale(4)"><rect width="6" height="6"/></g>
<g transform="translate(264,864) scale(4)"><rect width="6" height="6"/></g>
<g transform="translate(312,864) scale(4)"><rect width="6" height="6"/></g>
<g transform="translate(360,864) scale(4)"><rect width="6" height="6"/></g>
<g transform="translate(432,864) scale(4)"><rect width="6" height="6"/></g>
<g transform="translate(456,864) scale(4)"><rect width="6" height="6"/></g>
<g transform="translate(480,864) scale(4)"><rect width="6" height="6"/></g>
<g transform="translate(504,864) scale(4)"><rect width="6" height="6"/></g>
<g transform="translate(576,864) scale(4)"><rect width="6" height="6"/></g>
<g transform="translate(648,864) scale(4)"><rect width="6" height="6"/></g>
<g transform="translate(672,864) scale(4)"><rect width="6" height="6"/></g>
<g transform="translate(720,864) scale(4)"><rect width="6" height="6"/></g>
<g transform="translate(744,864) scale(4)"><rect width="6" height="6"/></g>
<g transform="translate(792,864) scale(4)"><rect width="6" height="6"/></g>
<g transform="translate(864,864) scale(4)"><rect width="6" height="6"/></g>
<g transform="translate(912,864) scale(4)"><rect width="6" height="6"/></g>
<g transform="translate(264,888) scale(4)"><rect width="6" height="6"/></g>
<g transform="translate(336,888) scale(4)"><rect width="6" height="6"/></g>
<g transform="translate(408,888) scale(4)"><rect width="6" height="6"/></g>
<g transform="translate(432,888) scale(4)"><rect width="6" height="6"/></g>
<g transform="translate(456,888) scale(4)"><rect width="6" height="6"/></g>
<g transform="translate(480,888) scale(4)"><rect width="6" height="6"/></g>
<g transform="translate(504,888) scale(4)"><rect width="6" height="6"/></g>
<g transform="translate(528,888) scale(4)"><rect width="6" height="6"/></g>
<g transform="translate(576,888) scale(4)"><rect width="6" height="6"/></g>
<g transform="translate(600,888) scale(4)"><rect width="6" height="6"/></g>
<g transform="translate(672,888) scale(4)"><rect width="6" height="6"/></g>
<g transform="translate(696,888) scale(4)"><rect width="6" height="6"/></g>
<g transform="translate(720,888) scale(4)"><rect width="6" height="6"/></g>
<g transform="translate(768,888) scale(4)"><rect width="6" height="6"/></g>
<g transform="translate(816,888) scale(4)"><rect width="6" height="6"/></g>
<g transform="translate(912,888) scale(4)"><rect width="6" height="6"/></g>
<g transform="translate(432,912) scale(4)"><rect width="6" height="6"/></g>
<g transform="translate(456,912) scale(4)"><rect width="6" height="6"/></g>
<g transform="translate(480,912) scale(4)"><rect width="6" height="6"/></g>
<g transform="translate(552,912) scale(4)"><rect width="6" height="6"/></g>
<g transform="translate(600,912) scale(4)"><rect width="6" height="6"/></g>
<g transform="translate(624,912) scale(4)"><rect width="6" height="6"/></g>
<g transform="translate(672,912) scale(4)"><rect width="6" height="6"/></g>
<g transform="translate(696,912) scale(4)"><rect width="6" height="6"/></g>
<g transform="translate(744,912) scale(4)"><rect width="6" height="6"/></g>
<g transform="translate(792,912) scale(4)"><rect width="6" height="6"/></g>
<g transform="translate(816,912) scale(4)"><rect width="6" height="6"/></g>
<g transform="translate(840,912) scale(4)"><rect width="6" height="6"/></g>
<g transform="translate(864,912) scale(4)"><rect width="6" height="6"/></g>
<g transform="translate(888,912) scale(4)"><rect width="6" height="6"/></g>
<g transform="translate(912,912) scale(4)"><rect width="6" height="6"/></g>
</g></mask></defs>
<rect width="984" height="984" fill="#ffffff" x="0" y="0" />
<rect x="0" y="0" width="984" height="984" mask="url(#qrmask)" fill="#000000" />
<g transform="translate(48,48)"  fill="#000000"><g transform="scale(12)"><path d="M0,0v14h14V0H0z M12,12H2V2h10V12z"/></g></g>
<g transform="translate(768,48)"  fill="#000000"><g transform="scale(12)"><path d="M0,0v14h14V0H0z M12,12H2V2h10V12z"/></g></g>
<g transform="translate(48,768)"  fill="#000000"><g transform="scale(12)"><path d="M0,0v14h14V0H0z M12,12H2V2h10V12z"/></g></g>
<g transform="translate(96,96)"  fill="#000000"><g transform="scale(12)"><rect width="6" height="6"/></g></g>
<g transform="translate(816,96)"  fill="#000000"><g transform="scale(12)"><rect width="6" height="6"/></g></g>
<g transform="translate(96,816)"  fill="#000000"><g transform="scale(12)"><rect width="6" height="6"/></g></g>
</svg>